PathFileType	4	(X/Y/Z)	s07c0203.trc
DataRate	CameraRate	NumFrames	NumMarkers	Units	OrigDataRate	OrigDataStartFrame	OrigNumFrames
200	200	5	48	mm	200	250	2000
Frame#	Time	racr			lacr			c7			jug			rlel			rdr			llel			ldr			s2			lic			ric			lasi			rasi			rpsi			lpsi			rgt			lgt			rth1			rth2			rth3			rth4			rlfc			rmfc			rsh1			rsh2			rsh3			rsh4			rlmal			rcal			rtoe			rmt5			lth1			lth2			lth4			lth3			llfc			lmfc			lsh1			lsh2			lsh3			lsh4			llmal			lcal			ltoe			lmt5			SBIKE			LBIKE			RBIKE			
		X1	Y1	Z1	X2	Y2	Z2	X3	Y3	Z3	X4	Y4	Z4	X5	Y5	Z5	X6	Y6	Z6	X7	Y7	Z7	X8	Y8	Z8	X9	Y9	Z9	X10	Y10	Z10	X11	Y11	Z11	X12	Y12	Z12	X13	Y13	Z13	X14	Y14	Z14	X15	Y15	Z15	X16	Y16	Z16	X17	Y17	Z17	X18	Y18	Z18	X19	Y19	Z19	X20	Y20	Z20	X21	Y21	Z21	X22	Y22	Z22	X23	Y23	Z23	X24	Y24	Z24	X25	Y25	Z25	X26	Y26	Z26	X27	Y27	Z27	X28	Y28	Z28	X29	Y29	Z29	X30	Y30	Z30	X31	Y31	Z31	X32	Y32	Z32	X33	Y33	Z33	X34	Y34	Z34	X35	Y35	Z35	X36	Y36	Z36	X37	Y37	Z37	X38	Y38	Z38	X39	Y39	Z39	X40	Y40	Z40	X41	Y41	Z41	X42	Y42	Z42	X43	Y43	Z43	X44	Y44	Z44	X45	Y45	Z45	X46	Y46	Z46	X47	Y47	Z47	X48	Y48	Z48	
250	1.2500	443.920561	1432.538949	-94.303984	426.582304	1422.438852	-390.297950	419.980316	1458.288935	-243.948133	384.763325	1319.695772	-238.588061	467.184912	1112.154231	49.574270	688.559148	935.547020	-58.189347	455.843761	1111.880964	-524.460148	690.398624	930.832821	-447.085547	-131.448449	1200.143549	-251.529517	30.202386	1235.040502	-376.975482	33.387221	1226.962007	-100.619459	64.124782	1159.583154	-364.667671	47.809567	1177.948572	-115.141861	-104.101721	1238.467056	-200.319319	-88.252866	1245.767360	-308.047637	-23.395063	1124.747528	-50.829064	-27.945287	1087.182226	-419.283228	121.594792	1073.497881	-53.406865	207.852890	1064.772662	-67.571031	280.771998	1020.008470	-65.497098	216.469604	1095.901943	-86.418751	400.860903	945.456215	-102.307701	393.859048	929.528224	-208.146084	348.940164	812.589033	-76.265462	333.889009	725.655580	-94.169171	282.518898	656.518467	-87.730856	350.070784	722.509227	-130.608106	221.737223	536.132499	-86.298999	149.285549	507.022173	-114.011662	429.743403	432.644311	-130.973531	348.808782	414.958052	-58.973052	34.053928	981.823797	-424.642613	106.048943	930.672895	-427.819169	134.158154	953.332899	-420.364205	143.092571	849.902322	-423.184515	242.076574	696.275462	-390.464306	228.122805	680.654546	-291.728193	151.142051	576.063301	-411.439719	116.601459	499.896952	-390.550580	47.058673	443.181325	-399.440771	120.394899	501.966247	-348.407266	-42.413411	342.550226	-396.691271	-121.380740	327.231353	-362.133833	145.562634	215.581353	-359.545695	61.321841	218.254984	-423.098100	-261.658156	962.720258	-237.403568	-82.809868	79.102067	-436.688501	-83.038919	78.588607	-39.710616	
251	1.2550	443.948132	1432.344107	-94.194880	426.699447	1422.373778	-390.175725	420.096050	1458.158006	-243.807239	384.838877	1319.584955	-238.536498	467.085304	1111.953589	49.701762	688.546071	935.549810	-58.061634	455.899826	1111.900766	-524.519118	690.402561	930.811406	-447.090864	-131.414304	1200.143802	-251.541015	30.244576	1234.983247	-377.025186	33.417459	1226.924154	-100.620639	64.159712	1159.546474	-364.648995	47.829361	1177.883469	-115.121202	-104.083461	1238.488344	-200.314431	-88.238211	1245.793714	-308.048997	-23.387985	1124.716888	-50.841458	-27.923602	1087.156626	-419.267371	121.596358	1073.450185	-53.403477	207.845925	1064.710333	-67.541427	280.770560	1019.939822	-65.489263	216.464671	1095.851356	-86.399190	400.866792	945.358327	-102.275581	393.847228	929.437442	-208.105262	348.927063	812.485374	-76.242890	333.871810	725.536942	-94.179989	282.555929	656.366290	-87.714047	350.085784	722.422437	-130.558613	221.765538	536.019724	-86.272607	149.310144	506.906621	-114.009828	429.782841	432.601093	-130.961710	348.855621	414.866746	-58.963517	34.058738	981.794380	-424.605408	106.055757	930.659705	-427.776754	134.162821	953.320625	-420.333943	143.109882	849.882520	-423.113273	242.085100	696.290040	-390.391244	228.100110	680.657761	-291.643939	151.107966	576.085227	-411.364282	116.562817	499.936143	-390.488272	47.017222	443.215922	-399.364696	120.352989	501.997001	-348.337190	-42.476931	342.657636	-396.652392	-121.438930	327.290057	-362.125847	145.503129	215.653482	-359.530250	61.275405	218.340685	-423.081938	-261.650444	962.723553	-237.409742	-82.801226	79.099055	-436.689103	-83.046980	78.600251	-39.686595	
252	1.2600	443.989021	1432.130832	-94.061083	426.833246	1422.280403	-390.088599	420.183901	1457.980329	-243.641229	384.882822	1319.448311	-238.504207	466.981172	1111.784177	49.839519	688.536430	935.534816	-57.954807	455.962836	1111.916079	-524.575259	690.402634	930.807740	-447.097452	-131.395430	1200.149189	-251.539382	30.277498	1236.106404	-380.663054	33.455051	1226.895971	-100.606708	64.183192	1159.490119	-364.607865	47.861658	1177.818025	-115.098076	-104.060708	1238.507296	-200.299018	-88.195145	1245.788136	-308.057563	-23.386279	1124.704116	-50.849193	-27.907567	1087.154921	-419.266980	121.594756	1073.375138	-53.388495	207.836413	1064.658700	-67.516446	280.762933	1019.870364	-65.464534	216.456911	1095.830857	-86.348983	400.811702	945.267769	-102.230631	393.818370	929.347491	-208.066837	348.921631	812.376257	-76.192180	340.991956	726.646690	-88.804600	282.568429	656.264935	-87.680781	350.016067	722.433108	-130.676746	221.758084	535.934263	-86.267623	149.328443	506.755086	-114.008227	429.819257	432.567150	-130.950082	348.893503	414.795675	-58.956938	34.077534	981.785934	-424.583110	106.077803	930.660954	-427.730738	134.185885	953.311125	-420.270103	143.146464	849.878158	-423.060667	242.095205	696.296493	-390.306652	228.086015	680.672791	-291.568461	151.093246	576.126215	-411.280809	116.509537	499.997938	-390.430065	46.951532	443.279991	-399.341834	120.340681	502.031890	-348.287120	-42.560652	342.739320	-396.604284	-121.500980	327.354450	-362.104118	145.431937	215.742510	-359.547865	61.213987	218.431632	-423.092257	-261.652073	962.727903	-237.395779	-82.800324	79.090026	-436.687106	-83.050081	78.606374	-39.694647	
253	1.2650	444.031765	1431.936382	-93.936981	426.983282	1422.239083	-389.983669	420.270077	1457.869500	-243.492137	384.959420	1319.307960	-238.451880	466.887373	1111.624877	49.950715	688.519529	935.543935	-57.903043	456.024104	1111.941737	-524.659127	690.400970	930.812860	-447.135172	-131.380508	1200.166159	-251.526857	30.342769	1234.886163	-377.090719	33.498710	1226.853079	-100.648307	64.188167	1159.460500	-364.591049	47.867140	1177.742372	-115.107239	-104.044300	1238.517807	-200.322302	-88.156347	1245.809299	-308.102310	-23.395090	1124.676506	-50.851489	-27.907875	1087.143353	-419.264052	121.591960	1073.314903	-53.381709	207.810301	1064.611317	-67.469216	280.724761	1019.817338	-65.413900	216.520227	1094.850104	-87.363875	400.783040	945.152565	-102.178299	393.787368	929.256308	-208.023250	348.908837	812.259093	-76.152843	340.988181	726.540759	-88.777291	282.576387	656.126617	-87.645014	349.461381	722.760753	-130.564908	221.782876	535.821488	-86.241149	149.432972	506.537307	-114.122873	429.867882	432.501455	-130.930667	348.936208	414.711702	-58.937323	34.106752	981.780626	-424.564344	106.100278	930.657124	-427.667493	134.194439	953.315786	-420.224689	143.170436	849.883650	-423.017654	242.107720	696.338075	-390.237160	228.109355	680.689896	-291.492924	151.046024	576.211874	-411.228800	116.461744	500.057493	-390.369943	46.908116	443.373135	-399.255135	120.305751	502.094963	-348.213786	-42.631990	342.849413	-396.565668	-121.584962	327.446093	-362.067245	145.369956	215.849706	-359.556840	61.137312	218.524089	-423.108777	-261.664505	962.721697	-237.399982	-82.806016	79.089280	-436.693078	-83.046971	78.591167	-39.724079	
254	1.2700	444.057163	1431.794634	-93.779171	427.114439	1422.198370	-389.866863	420.349264	1457.732234	-243.350176	385.011505	1319.184869	-238.357744	466.807764	1111.446031	50.023357	688.491824	935.558680	-57.843972	456.085139	1111.978198	-524.736933	690.401913	930.829956	-447.196128	-131.384848	1200.200965	-251.512844	30.413858	1234.870777	-377.078898	33.507684	1226.826741	-100.633025	64.229040	1159.400666	-364.556096	47.892035	1177.695279	-115.104599	-104.019767	1238.539109	-200.340762	-88.129260	1245.820298	-308.101068	-23.390966	1124.667577	-50.840905	-27.888773	1087.140946	-419.272954	121.575037	1073.292550	-53.358470	207.793374	1064.542963	-67.443953	280.700684	1019.749748	-65.385470	216.501600	1094.778522	-87.294859	400.757553	945.060425	-102.138985	393.742623	929.184978	-207.965805	348.886472	812.149285	-76.116473	340.945289	726.383669	-88.763500	282.588807	656.006710	-87.623743	349.470335	722.640334	-130.515317	221.787565	535.729917	-86.249172	149.414076	506.396551	-114.052808	429.921544	432.440418	-130.936975	349.002443	414.615780	-58.928626	34.114852	981.777991	-424.528435	106.133699	930.666589	-427.623945	134.213286	953.330229	-420.171547	143.220085	849.897970	-422.952142	242.146237	696.352475	-390.157422	228.112001	680.713051	-291.441368	151.004084	576.283880	-411.156384	116.414795	500.149145	-390.307589	46.839292	443.528277	-399.240663	120.284989	502.140600	-348.169298	-42.697086	342.970518	-396.536819	-121.661770	327.552812	-362.018036	145.303411	215.944639	-359.539123	61.068007	218.631276	-423.083261	-261.668915	962.720908	-237.411897	-82.807334	79.086868	-436.670872	-83.077290	78.586807	-39.686649	
